<svg width="192" height="65" viewBox="0 0 192 65" fill="none" xmlns="http://www.w3.org/2000/svg">
<path fill-rule="evenodd" clip-rule="evenodd" d="M37.4154 31.9705C40.1557 28.4682 44.5439 26.1993 49.4899 26.1993C54.4649 26.1993 58.8754 28.495 61.6125 32.0324C61.4959 32.1462 61.3899 32.2642 61.2938 32.382C60.7924 32.9988 60.4152 33.7934 60.113 34.6003C59.5044 36.2231 59.0402 38.3429 58.6105 40.3278L58.5722 40.5063C58.1434 42.4876 57.7448 44.3303 57.2629 45.6982C57.0464 46.3127 56.8411 46.7472 56.659 47.0254C56.469 46.7449 56.2534 46.3052 56.0253 45.6818C55.5098 44.2747 55.0763 42.3607 54.6167 40.317L54.6018 40.2501V40.25C54.1602 38.2871 53.6917 36.2043 53.1076 34.61C52.8142 33.8091 52.4542 33.0225 51.9832 32.4113C51.5211 31.8116 50.7517 31.1347 49.6266 31.1347C48.5085 31.1347 47.7356 31.8042 47.2667 32.3972C46.7867 33.0045 46.4125 33.7878 46.1042 34.5891C45.4834 36.2026 44.9758 38.3133 44.5034 40.301L44.4546 40.5063C43.9869 42.4753 43.5496 44.3162 43.0532 45.6867C42.8637 46.21 42.6849 46.6083 42.5231 46.8927C42.3649 46.6096 42.1905 46.214 42.0062 45.6951C41.53 44.3538 41.1128 42.5644 40.6648 40.6426L40.5864 40.3063C40.1222 38.3174 39.6185 36.2029 38.9889 34.5843C38.676 33.7801 38.2933 32.9928 37.7982 32.3828C37.686 32.2447 37.5586 32.1045 37.4154 31.9705ZM35.7569 34.6596C35.8874 34.9045 36.0254 35.208 36.1682 35.575C36.7132 36.976 37.175 38.8877 37.6505 40.9249L37.743 41.3219C38.1759 43.1807 38.6263 45.1144 39.1568 46.6083C39.4389 47.4028 39.7796 48.181 40.2178 48.7858C40.6322 49.3578 41.3756 50.0967 42.5186 50.0967C43.6584 50.0967 44.4036 49.3614 44.8208 48.792C45.2627 48.1886 45.609 47.4112 45.8968 46.6162C46.4486 45.0927 46.9184 43.1138 47.368 41.2199V41.2198L47.4368 40.9303C47.9212 38.8918 48.3876 36.9763 48.9286 35.5702C49.1793 34.9187 49.4139 34.4649 49.6182 34.1833C49.8118 34.4625 50.033 34.9091 50.2676 35.5493C50.7832 36.9566 51.2163 38.8705 51.676 40.9142L51.691 40.9811C52.1325 42.9441 52.601 45.027 53.1851 46.6211C53.4785 47.4223 53.8386 48.2089 54.3095 48.8199C54.7718 49.4198 55.541 50.0967 56.666 50.0967C57.797 50.0967 58.5634 49.4136 59.0202 48.8084C59.484 48.1943 59.8327 47.405 60.1144 46.6052C60.6559 45.0687 61.0864 43.0752 61.497 41.1788V41.1787L61.5558 40.9034C61.9978 38.8622 62.422 36.9558 62.946 35.559C63.0594 35.2551 63.1712 34.996 63.2778 34.7784C64.0805 36.5265 64.5257 38.4567 64.5257 40.4857C64.5257 48.3757 57.7942 54.7721 49.4899 54.7721C41.1857 54.7721 34.4539 48.3757 34.4539 40.4857C34.4539 38.4106 34.9195 36.4388 35.7569 34.6596ZM49.4899 23.342C39.5249 23.342 31.4467 31.0175 31.4467 40.4857C31.4467 49.9538 39.5249 57.6292 49.4899 57.6292C59.4551 57.6292 67.5329 49.9538 67.5329 40.4857C67.5329 31.0175 59.4551 23.342 49.4899 23.342ZM49.8336 33.9442C49.8336 33.9445 49.8301 33.9472 49.8231 33.9511C49.8301 33.9458 49.8336 33.9438 49.8336 33.9442ZM49.418 33.9461C49.411 33.9421 49.4075 33.9393 49.4075 33.9389C49.4075 33.9385 49.4111 33.9406 49.418 33.9461ZM56.4373 47.2966C56.4373 47.2966 56.4406 47.2935 56.4471 47.2896C56.4406 47.2949 56.4373 47.2971 56.4373 47.2966ZM56.8746 47.2851C56.8815 47.2891 56.8853 47.2918 56.8853 47.2922C56.8853 47.2926 56.8815 47.2904 56.8746 47.2851ZM42.2105 47.3223C42.2104 47.3218 42.2148 47.3178 42.2234 47.3121C42.2148 47.3196 42.2105 47.3227 42.2105 47.3223ZM42.8195 47.3148C42.8281 47.3205 42.8324 47.3245 42.8324 47.3249C42.8323 47.3254 42.828 47.3227 42.8195 47.3148Z" fill="#81818B"/>
<path d="M77.4958 50.6351L73.1205 36.4144H76.953L79.5481 46.6498L82.5652 36.4144H86.8503L89.868 46.6498L92.493 36.4144H96.3255L91.9197 50.6351H87.9066L84.7078 39.9982L81.5095 50.6351H77.4958Z" fill="#81818B"/>
<path d="M101.949 50.9793C100.661 50.9793 99.6052 50.7877 98.7804 50.4055C97.9562 50.0042 97.3424 49.4786 96.9398 48.8287C96.5376 48.1788 96.3365 47.4621 96.3365 46.6785C96.3365 45.3597 96.8794 44.2893 97.9656 43.4674C99.0519 42.6455 100.682 42.2346 102.854 42.2346H106.656V41.8905C106.656 40.9157 106.365 40.199 105.781 39.7402C105.198 39.2815 104.474 39.0522 103.609 39.0522C102.824 39.0522 102.14 39.2337 101.557 39.5969C100.973 39.9409 100.611 40.457 100.47 41.1451H96.6983C96.7991 40.113 97.1613 39.2146 97.7845 38.45C98.4287 37.6855 99.2535 37.1025 100.259 36.7012C101.265 36.2807 102.391 36.0704 103.639 36.0704C105.771 36.0704 107.451 36.5769 108.678 37.5899C109.905 38.603 110.519 40.0366 110.519 41.8905V50.6351H107.229L106.868 48.3416C106.425 49.1061 105.801 49.7366 104.997 50.2338C104.212 50.7306 103.196 50.9793 101.949 50.9793ZM102.824 48.112C103.931 48.112 104.785 47.7678 105.389 47.0798C106.012 46.3919 106.405 45.5411 106.566 44.5282H103.277C102.251 44.5282 101.517 44.7098 101.074 45.0729C100.632 45.4168 100.41 45.8472 100.41 46.3631C100.41 46.9175 100.632 47.3475 101.074 47.6532C101.517 47.9589 102.099 48.112 102.824 48.112Z" fill="#81818B"/>
<path d="M116.599 50.6351L111.107 36.4144H115.15L118.952 47.1661L122.755 36.4144H126.798L121.276 50.6351H116.599Z" fill="#81818B"/>
<path d="M134.562 50.9793C133.054 50.9793 131.716 50.6732 130.549 50.0617C129.383 49.4498 128.468 48.5898 127.803 47.4811C127.139 46.3728 126.808 45.092 126.808 43.6394C126.808 42.1677 127.13 40.8584 127.773 39.7116C128.437 38.5648 129.342 37.676 130.489 37.0452C131.655 36.3954 133.023 36.0704 134.593 36.0704C136.061 36.0704 137.359 36.3762 138.486 36.9879C139.612 37.5995 140.487 38.4405 141.111 39.5109C141.754 40.5621 142.077 41.7376 142.077 43.0373C142.077 43.2476 142.066 43.4674 142.046 43.6967C142.046 43.9262 142.036 44.165 142.016 44.4135H130.64C130.72 45.5221 131.123 46.3919 131.847 47.0228C132.591 47.6532 133.487 47.9687 134.533 47.9687C135.317 47.9687 135.971 47.8063 136.494 47.4811C137.037 47.1373 137.439 46.6976 137.701 46.1622H141.623C141.342 47.0608 140.869 47.8828 140.205 48.6283C139.561 49.3543 138.757 49.9277 137.791 50.3484C136.846 50.7687 135.769 50.9793 134.562 50.9793ZM134.593 39.0522C133.648 39.0522 132.812 39.3102 132.088 39.8262C131.364 40.3232 130.901 41.0878 130.7 42.1199H138.153C138.093 41.1833 137.731 40.4379 137.067 39.8836C136.403 39.3293 135.579 39.0522 134.593 39.0522Z" fill="#81818B"/>
<path d="M144.118 50.635V29.9922H147.98V50.635H144.118Z" fill="#81818B"/>
<path d="M157.991 50.9793C156.483 50.9793 155.145 50.6732 153.978 50.0617C152.812 49.4498 151.897 48.5898 151.233 47.4811C150.568 46.3728 150.237 45.092 150.237 43.6394C150.237 42.1677 150.559 40.8584 151.202 39.7116C151.866 38.5648 152.771 37.676 153.918 37.0452C155.085 36.3954 156.453 36.0704 158.022 36.0704C159.49 36.0704 160.788 36.3762 161.915 36.9879C163.041 37.5995 163.917 38.4405 164.54 39.5109C165.183 40.5621 165.506 41.7376 165.506 43.0373C165.506 43.2476 165.495 43.4674 165.475 43.6967C165.475 43.9262 165.465 44.165 165.445 44.4135H154.069C154.149 45.5221 154.552 46.3919 155.276 47.0228C156.02 47.6532 156.916 47.9687 157.962 47.9687C158.746 47.9687 159.4 47.8063 159.923 47.4811C160.466 47.1373 160.868 46.6976 161.13 46.1622H165.053C164.771 47.0608 164.298 47.8828 163.635 48.6283C162.99 49.3543 162.186 49.9277 161.22 50.3484C160.275 50.7687 159.199 50.9793 157.991 50.9793ZM158.022 39.0522C157.077 39.0522 156.242 39.3102 155.517 39.8262C154.793 40.3232 154.331 41.0878 154.129 42.1199H161.582C161.522 41.1833 161.16 40.4379 160.496 39.8836C159.832 39.3293 159.008 39.0522 158.022 39.0522Z" fill="#81818B"/>
<path d="M173.733 50.9793C172.405 50.9793 171.238 50.7784 170.233 50.3772C169.226 49.9564 168.422 49.3831 167.818 48.6566C167.215 47.9306 166.853 47.0896 166.732 46.134H170.625C170.745 46.6878 171.068 47.1661 171.591 47.5674C172.133 47.9496 172.827 48.1408 173.672 48.1408C174.517 48.1408 175.131 47.9784 175.513 47.6532C175.915 47.3285 176.117 46.9555 176.117 46.5352C176.117 45.9234 175.835 45.5124 175.272 45.3022C174.709 45.0729 173.924 44.8532 172.918 44.6429C172.275 44.5091 171.621 44.3466 170.957 44.1555C170.293 43.9644 169.68 43.7254 169.116 43.4388C168.573 43.1329 168.13 42.7506 167.788 42.2919C167.446 41.814 167.276 41.2311 167.276 40.543C167.276 39.2815 167.798 38.2207 168.845 37.3606C169.911 36.5005 171.399 36.0704 173.31 36.0704C175.081 36.0704 176.489 36.4622 177.535 37.2459C178.601 38.0296 179.235 39.1095 179.436 40.4857H175.785C175.563 39.4344 174.728 38.9088 173.281 38.9088C172.556 38.9088 171.993 39.0426 171.591 39.3102C171.208 39.5778 171.017 39.9122 171.017 40.3136C171.017 40.7342 171.309 41.0686 171.892 41.3171C172.476 41.5656 173.25 41.7949 174.216 42.0052C175.261 42.2346 176.217 42.4926 177.082 42.7793C177.967 43.0469 178.671 43.4579 179.195 44.0122C179.718 44.5473 179.979 45.3212 179.979 46.3343C179.999 47.2139 179.757 48.0067 179.255 48.7141C178.752 49.4211 178.028 49.9754 177.082 50.3772C176.137 50.7784 175.02 50.9793 173.733 50.9793Z" fill="#81818B"/>
<path d="M188.379 50.9793C187.052 50.9793 185.885 50.7784 184.879 50.3772C183.873 49.9564 183.069 49.3831 182.465 48.6566C181.862 47.9306 181.499 47.0896 181.379 46.134H185.272C185.392 46.6878 185.714 47.1661 186.237 47.5674C186.78 47.9496 187.474 48.1408 188.319 48.1408C189.164 48.1408 189.778 47.9784 190.16 47.6532C190.562 47.3285 190.764 46.9555 190.764 46.5352C190.764 45.9234 190.482 45.5124 189.918 45.3022C189.355 45.0729 188.571 44.8532 187.565 44.6429C186.921 44.5091 186.267 44.3466 185.603 44.1555C184.94 43.9644 184.326 43.7254 183.763 43.4388C183.22 43.1329 182.777 42.7506 182.435 42.2919C182.093 41.814 181.922 41.2311 181.922 40.543C181.922 39.2815 182.445 38.2207 183.491 37.3606C184.558 36.5005 186.046 36.0704 187.957 36.0704C189.727 36.0704 191.135 36.4622 192.182 37.2459C193.247 38.0296 193.881 39.1095 194.083 40.4857H190.431C190.21 39.4344 189.375 38.9088 187.927 38.9088C187.202 38.9088 186.639 39.0426 186.237 39.3102C185.855 39.5778 185.664 39.9122 185.664 40.3136C185.664 40.7342 185.955 41.0686 186.539 41.3171C187.122 41.5656 187.896 41.7949 188.862 42.0052C189.908 42.2346 190.864 42.4926 191.729 42.7793C192.614 43.0469 193.318 43.4579 193.841 44.0122C194.364 44.5473 194.626 45.3212 194.626 46.3343C194.646 47.2139 194.404 48.0067 193.901 48.7141C193.398 49.4211 192.675 49.9754 191.729 50.3772C190.783 50.7784 189.667 50.9793 188.379 50.9793Z" fill="#81818B"/>
</svg>
